<?xml version="1.0" encoding="UTF-8"?>
<!DOCTYPE svg PUBLIC "-//W3C//DTD SVG 1.1//EN" "http://www.w3.org/Graphics/SVG/1.1/DTD/svg11.dtd">
<!-- Creator: CorelDRAW -->
<svg xmlns="http://www.w3.org/2000/svg" xml:space="preserve" width="1.70666in" height="1.70666in" version="1.1" style="shape-rendering:geometricPrecision; text-rendering:geometricPrecision; image-rendering:optimizeQuality; fill-rule:evenodd; clip-rule:evenodd"
viewBox="0 0 1707 1707"
 xmlns:xlink="http://www.w3.org/1999/xlink">
 <defs>
  <style type="text/css">
   <![CDATA[
    .str0 {stroke:#373435;stroke-width:6.94488}
    .fil0 {fill:none}
    .fil1 {fill:black}
   ]]>
  </style>
 </defs>
<symbol id="Symbol1" viewBox="798 807 112 90">
 <line class="fil0 str0" x1="885" y1="811" x2="907" y2= "896" />
 <line class="fil0 str0" x1="885" y1="811" x2="799" y2= "834" />
</symbol>
 <g id="Layer_x0020_1">
  <metadata id="CorelCorpID_0Corel-Layer"/>
  <path class="fil1" d="M854 1611c-430,0 -797,-322 -854,-748 -1,-7 2,-14 6,-19 4,-6 11,-9 18,-9l419 0 0 -155 -151 -111c-29,-22 -39,-67 -24,-102 10,-19 25,-34 45,-38 16,-5 34,-2 50,9l82 60 0 -96 -153 -111c-29,-22 -40,-66 -24,-103 10,-20 27,-34 46,-38 17,-5 35,0 50,11l81 58 0 -14c0,-61 41,-110 93,-110 51,0 93,50 93,110l0 218 81 -58c20,-14 38,-14 50,-11 14,4 27,12 37,26 23,33 23,89 -16,117l-151 109 0 229 576 0c0,-21 1,-40 1,-68 3,-75 6,-162 -1,-244 -114,-18 -196,-61 -246,-128 -59,-80 -47,-166 -47,-170 1,-10 10,-18 20,-20 88,-18 161,-4 215,40 49,42 76,106 92,178 21,-57 50,-99 88,-126 53,-38 122,-49 206,-31 9,2 18,10 19,21 0,4 11,89 -50,169 -50,66 -133,109 -245,128 2,64 0,128 -2,185 -1,27 -1,46 -1,66l426 0c14,0 26,14 23,28 -55,426 -422,748 -852,748zm607 -1305c-41,0 -75,10 -103,31 -47,35 -78,99 -95,197 220,-42 243,-175 243,-223 -15,-3 -32,-5 -45,-5zm-497 -56c0,25 5,72 39,118 40,52 106,88 199,105 -12,-80 -36,-150 -84,-190 -38,-32 -89,-43 -154,-33zm-471 585l89 0 0 -243c0,-7 4,-15 10,-20l161 -117c16,-13 12,-36 4,-49 -5,-7 -10,-9 -18,-4l-120 86c-19,10 -38,3 -38,-21l0 -262c0,-33 -20,-61 -45,-61 -25,0 -44,28 -44,61l0 61c0,26 -23,30 -42,16l-115 -82c-8,-8 -19,1 -22,9 -6,14 -3,35 8,43l158 115c8,6 14,13 14,23l0 155c0,23 -27,31 -40,18l-118 -86c-10,-5 -19,2 -22,11 -7,14 -3,35 8,42l158 116c7,5 14,12 14,23l0 166zm-112 574c73,-29 133,-35 175,-34 57,1 138,27 181,-32 50,-68 -10,-124 -70,-148 -34,-13 -78,-26 -128,-35 -78,-14 -90,-55 -89,-79 0,-56 70,-118 110,-125 107,-18 109,-39 111,-54 0,-5 1,-12 4,-18l-267 0c-1,20 -8,44 -43,60 -149,67 -205,182 -216,207 58,102 138,190 232,258zm365 -525c-8,7 -27,13 -27,25 -5,46 -33,75 -151,96 -19,2 -69,47 -69,77 0,18 26,27 50,31 37,7 88,18 133,36 96,37 165,130 96,225 -64,84 -144,52 -223,51 -31,-1 -72,3 -122,18 124,75 268,118 421,118 343,0 644,-217 760,-526 -130,-42 -194,-88 -211,-151l-657 0zm-625 214c30,-52 96,-140 224,-199 8,-4 12,-5 13,-15l-305 0c13,76 36,148 68,214zm1332 -214c11,25 47,64 177,106 10,-34 19,-70 25,-106l-202 0z"/>
 </g>
</svg>
