<svg xmlns="http://www.w3.org/2000/svg" xml:space="preserve" width="1.70666in" height="1.70666in" version="1.1" style="shape-rendering:geometricPrecision; text-rendering:geometricPrecision; image-rendering:optimizeQuality; fill-rule:evenodd; clip-rule:evenodd" viewBox="0 0 1706.66 1706.66" xmlns:xlink="http://www.w3.org/1999/xlink" xmlns:xodm="http://www.corel.com/coreldraw/odm/2003">
 <defs>
  <style type="text/css">
   
    .fil0 {fill:black}
   
  </style>
 </defs>
 <g id="Layer_x0020_1">
  <metadata id="CorelCorpID_0Corel-Layer"></metadata>
  <g id="_1693467545808">
   <g>
    <g>
     <path class="fil0" d="M1453.71 1023.07c-11.04,0 -20,-8.97 -20,-20l0 -191.67c0,-121.15 -38.36,-225.27 -114.02,-309.5 -7.37,-8.22 -6.69,-20.86 1.51,-28.25 8.18,-7.37 20.85,-6.71 28.24,1.51 82.46,91.79 124.26,204.92 124.26,336.23l0 191.65c0.01,11.04 -8.96,20.02 -19.99,20.02zm-1212.69 0c-11.04,0 -20,-8.97 -20,-20l0 -191.67c0,-136.44 47.35,-257.46 136.93,-349.98 7.7,-7.94 20.36,-8.13 28.28,-0.46 7.94,7.68 8.13,20.35 0.46,28.28 -83.39,86.13 -125.67,194.51 -125.67,322.17l0 191.65c0,11.04 -8.96,20.01 -20,20.01z" id="id_101" style="fill: rgb(128, 133, 143);"></path>
    </g>
    <g>
     <g>
      <path class="fil0" d="M1485.69 1569.76l-124.96 0c-11.04,0 -20,-8.97 -20,-20l0 -546.7c0,-11.04 8.97,-20 20,-20l124.96 0c121.83,0 220.96,99.12 220.96,220.96l0 144.79c0,121.83 -99.11,220.96 -220.96,220.96zm-104.94 -40.02l104.96 0c99.78,0 180.94,-81.18 180.94,-180.94l0 -144.79c0,-99.78 -81.18,-180.94 -180.94,-180.94l-104.96 0 0 506.68z" id="id_102" style="fill: rgb(128, 133, 143);"></path>
     </g>
     <g>
      <path class="fil0" d="M345.91 1569.76l-124.94 0c-121.83,0 -220.96,-99.13 -220.96,-220.96l0.01 -144.79c0,-121.83 99.12,-220.96 220.96,-220.96l124.95 0c11.04,0 20,8.97 20,20l0 546.69c-0.02,11.04 -8.96,20.02 -20.02,20.02zm-124.94 -546.69c-99.79,0 -180.96,81.18 -180.96,180.94l0 144.79c0,99.78 81.18,180.94 180.96,180.94l104.96 0 0 -506.68 -104.96 0z" id="id_103" style="fill: rgb(128, 133, 143);"></path>
     </g>
     <g>
      <path class="fil0" d="M457.33 1617.91l-70.8 0c-33.42,0 -60.61,-27.2 -60.61,-60.61l-0.01 -561.78c0,-33.43 27.2,-60.63 60.61,-60.63l70.81 0c33.42,0 60.61,27.2 60.61,60.63l0 561.76c0.02,33.43 -27.18,60.62 -60.61,60.62zm-70.79 -643c-11.36,0 -20.61,9.25 -20.61,20.61l0 561.76c0,11.36 9.25,20.6 20.61,20.6l70.81 0c11.36,0 20.61,-9.23 20.61,-20.6l0 -561.75c0,-11.36 -9.25,-20.61 -20.61,-20.61l-70.81 -0z" id="id_104" style="fill: rgb(128, 133, 143);"></path>
     </g>
     <g>
      <path class="fil0" d="M1320.11 1617.91l-70.81 0c-33.41,0 -60.61,-27.2 -60.61,-60.61l0 -561.78c0,-33.43 27.2,-60.63 60.61,-60.63l70.81 0c33.43,0 60.62,27.2 60.62,60.63l0 561.76c0.02,33.43 -27.18,60.62 -60.62,60.62zm-70.8 -643c-11.36,0 -20.59,9.25 -20.59,20.61l0 561.76c0,11.36 9.23,20.6 20.59,20.6l70.8 0c11.36,0 20.61,-9.23 20.61,-20.6l0 -561.75c0,-11.36 -9.25,-20.61 -20.61,-20.61l-70.81 -0z" id="id_105" style="fill: rgb(128, 133, 143);"></path>
     </g>
    </g>
    <g>
     <path class="fil0" d="M1202.03 589.03c-1.59,0 -3.18,-0.19 -4.75,-0.57 -5.15,-1.26 -9.59,-4.52 -12.35,-9.04l-59.17 -97.42c-47.11,-77.54 -156.4,-125.72 -285.23,-125.72 -120.56,0 -225.44,43.76 -273.74,114.21l-64.46 94c-3,4.37 -7.61,7.37 -12.82,8.35 -5.22,0.99 -10.6,-0.17 -14.99,-3.17l-188 -128.92c-4.37,-3 -7.37,-7.61 -8.35,-12.82 -0.97,-5.21 0.17,-10.61 3.17,-14.99l64.46 -94c98.87,-144.16 283.71,-230.21 494.5,-230.21 222.13,0 419.27,97.39 514.48,254.17l59.17 97.42c5.74,9.44 2.73,21.74 -6.71,27.48l-194.82 118.33c-3.17,1.9 -6.76,2.88 -10.4,2.88zm-361.47 -272.74c142.7,0 265.09,55.54 319.41,144.96l48.79 80.32 160.63 -97.57 -48.78 -80.32c-88.02,-144.92 -272.06,-234.93 -480.3,-234.93 -197.58,0 -370.1,79.57 -461.5,212.84l-53.16 77.51 155.01 106.29 53.16 -77.51c55.65,-81.16 173.18,-131.59 306.73,-131.59z" id="id_106" style="fill: rgb(128, 133, 143);"></path>
    </g>
   </g>
  </g>
 </g>
</svg>