<?xml version="1.0" encoding="utf-8"?>
<!-- Generator: Adobe Illustrator 25.4.1, SVG Export Plug-In . SVG Version: 6.00 Build 0)  -->
<svg version="1.1" id="Layer_1" xmlns="http://www.w3.org/2000/svg" xmlns:xlink="http://www.w3.org/1999/xlink" x="0px" y="0px"
	 viewBox="0 0 100 100" style="enable-background:new 0 0 100 100;" xml:space="preserve">
<path d="M8.49,59.35v16.19c0,4.01,3.54,7.28,7.89,7.28c4.35,0,7.89-3.26,7.89-7.28v-11.6h6l27.7,15.98c0.23,0.13,0.49,0.2,0.75,0.2
	s0.52-0.07,0.75-0.2c0.46-0.27,0.75-0.76,0.75-1.3V57.36c1.37-0.44,2.62-1.2,3.66-2.24c1.74-1.72,2.69-4.01,2.69-6.47
	c0-4.02-2.61-7.49-6.35-8.69V18.68c0-0.54-0.29-1.03-0.75-1.3c-0.46-0.27-1.04-0.27-1.5,0L33.82,31.32H22.78h-2.96
	c-9,0-16.31,7.32-16.31,16.31C3.5,52.23,5.42,56.38,8.49,59.35z M16.38,79.82c-2.7,0-4.89-1.92-4.89-4.28v-13.9
	c2.44,1.46,5.28,2.31,8.32,2.31h1.46v11.6C21.28,77.9,19.08,79.82,16.38,79.82z M63.58,48.65c0,1.65-0.64,3.19-1.81,4.34
	c-0.46,0.46-0.98,0.84-1.55,1.13V43.21C62.24,44.23,63.58,46.29,63.58,48.65z M57.23,76.03l-25.8-14.89
	c-0.03-0.01-0.05-0.02-0.08-0.04c-0.05-0.02-0.1-0.05-0.15-0.07c-0.05-0.02-0.09-0.03-0.14-0.04c-0.05-0.01-0.09-0.02-0.14-0.03
	c-0.05-0.01-0.11-0.01-0.16-0.02c-0.03,0-0.05-0.01-0.08-0.01h-6.4v-0.4V34.32h9.94c0.03,0,0.06-0.01,0.09-0.01
	c0.05,0,0.1-0.01,0.16-0.02c0.05-0.01,0.1-0.02,0.15-0.03c0.05-0.01,0.09-0.03,0.14-0.04c0.05-0.02,0.1-0.04,0.15-0.07
	c0.03-0.01,0.05-0.02,0.08-0.04l22.25-12.84V76.03z M19.81,34.32h1.46v26.22v0.4h-1.46c-3.35,0-6.41-1.25-8.75-3.3
	c-0.02-0.02-0.04-0.04-0.06-0.05C8.25,55.15,6.5,51.6,6.5,47.63C6.5,40.29,12.47,34.32,19.81,34.32z"/>
<path d="M70.46,40.09c1.18,0,2.34-0.42,3.25-1.17l10.55-8.75c1.05-0.87,1.69-2.09,1.82-3.44s-0.28-2.68-1.15-3.72
	c-0.87-1.05-2.09-1.69-3.44-1.82c-1.35-0.13-2.67,0.28-3.72,1.15l-10.55,8.75c-1.05,0.87-1.69,2.09-1.82,3.44
	c-0.13,1.35,0.28,2.68,1.15,3.72C67.51,39.42,68.94,40.09,70.46,40.09z M69.13,33.39l10.55-8.75c0.38-0.31,0.84-0.48,1.33-0.48
	c0.07,0,0.13,0,0.2,0.01c0.56,0.05,1.06,0.32,1.41,0.75s0.52,0.97,0.47,1.53c-0.05,0.56-0.32,1.06-0.75,1.41l-10.55,8.75
	c-0.48,0.4-0.99,0.48-1.33,0.48c-0.62,0-1.21-0.28-1.61-0.76c-0.36-0.43-0.52-0.97-0.47-1.53S68.7,33.75,69.13,33.39z"/>
<path d="M70.02,61.99l10.55,8.75c0.91,0.76,2.06,1.17,3.25,1.17c1.52,0,2.95-0.67,3.92-1.84c0.87-1.05,1.28-2.37,1.15-3.72
	c-0.13-1.35-0.77-2.58-1.82-3.44l-10.55-8.75c-1.05-0.87-2.38-1.27-3.72-1.15c-1.35,0.13-2.58,0.77-3.44,1.82
	c-0.87,1.05-1.28,2.37-1.15,3.72C68.33,59.9,68.97,61.12,70.02,61.99z M71.66,56.74c0.36-0.43,0.86-0.69,1.41-0.75
	c0.07-0.01,0.13-0.01,0.2-0.01c0.49,0,0.95,0.17,1.33,0.48l10.55,8.75c0.43,0.36,0.7,0.86,0.75,1.41s-0.12,1.1-0.47,1.53
	c-0.4,0.48-0.99,0.76-1.61,0.76c-0.34,0-0.85-0.08-1.33-0.48l-10.55-8.75c-0.43-0.36-0.69-0.86-0.75-1.41
	C71.14,57.71,71.3,57.17,71.66,56.74z"/>
<path d="M91.41,41.45H75.74c-2.81,0-5.09,2.28-5.09,5.09s2.28,5.09,5.09,5.09h15.67c2.81,0,5.09-2.28,5.09-5.09
	S94.22,41.45,91.41,41.45z M91.41,48.63H75.74c-1.15,0-2.09-0.94-2.09-2.09s0.94-2.09,2.09-2.09h15.67c1.15,0,2.09,0.94,2.09,2.09
	S92.56,48.63,91.41,48.63z"/>
</svg>
